<mxfile host="app.diagrams.net" modified="2023-01-31T21:14:03.196Z" agent="5.0 (Macintosh; Intel Mac OS X 10_15_7) AppleWebKit/537.36 (KHTML, like Gecko) Chrome/109.0.0.0 Safari/537.36" etag="BcGxz11fZ0-Qlwn-bg9t" version="20.8.13" type="github">
  <diagram name="Page-1" id="qlgRT-weQAJ-LeQx6QYe">
    <mxGraphModel dx="883" dy="591" grid="1" gridSize="10" guides="1" tooltips="1" connect="1" arrows="1" fold="1" page="1" pageScale="1" pageWidth="827" pageHeight="1169" math="0" shadow="0">
      <root>
        <mxCell id="0" />
        <mxCell id="1" parent="0" />
        <mxCell id="BviLwrJEOvnJwdVKLCZl-1" value="" style="outlineConnect=0;dashed=0;verticalLabelPosition=bottom;verticalAlign=top;align=center;html=1;shape=mxgraph.aws3.virtual_private_cloud;fillColor=#F58534;gradientColor=none;" vertex="1" parent="1">
          <mxGeometry x="60" y="560" width="90" height="60" as="geometry" />
        </mxCell>
        <mxCell id="BviLwrJEOvnJwdVKLCZl-20" value="" style="endArrow=none;html=1;rounded=0;" edge="1" parent="1">
          <mxGeometry width="50" height="50" relative="1" as="geometry">
            <mxPoint y="160" as="sourcePoint" />
            <mxPoint x="830" y="160" as="targetPoint" />
          </mxGeometry>
        </mxCell>
        <mxCell id="BviLwrJEOvnJwdVKLCZl-21" value="" style="aspect=fixed;perimeter=ellipsePerimeter;html=1;align=center;shadow=0;dashed=0;spacingTop=3;image;image=img/lib/active_directory/internet_globe.svg;" vertex="1" parent="1">
          <mxGeometry x="350" y="30" width="85" height="85" as="geometry" />
        </mxCell>
        <mxCell id="BviLwrJEOvnJwdVKLCZl-22" value="internet&amp;nbsp;" style="text;html=1;align=center;verticalAlign=middle;resizable=0;points=[];autosize=1;strokeColor=none;fillColor=none;" vertex="1" parent="1">
          <mxGeometry x="440" y="60" width="70" height="30" as="geometry" />
        </mxCell>
        <mxCell id="BviLwrJEOvnJwdVKLCZl-23" value="" style="endArrow=classic;startArrow=classic;html=1;rounded=0;" edge="1" parent="1">
          <mxGeometry width="50" height="50" relative="1" as="geometry">
            <mxPoint x="400" y="210" as="sourcePoint" />
            <mxPoint x="400" y="120" as="targetPoint" />
          </mxGeometry>
        </mxCell>
        <mxCell id="BviLwrJEOvnJwdVKLCZl-25" value="" style="shape=link;html=1;rounded=0;" edge="1" parent="1">
          <mxGeometry width="100" relative="1" as="geometry">
            <mxPoint x="40" y="280" as="sourcePoint" />
            <mxPoint x="760" y="280" as="targetPoint" />
          </mxGeometry>
        </mxCell>
        <mxCell id="BviLwrJEOvnJwdVKLCZl-27" value="" style="shape=link;html=1;rounded=0;" edge="1" parent="1">
          <mxGeometry width="100" relative="1" as="geometry">
            <mxPoint x="40" y="1120" as="sourcePoint" />
            <mxPoint x="40" y="280" as="targetPoint" />
          </mxGeometry>
        </mxCell>
        <mxCell id="BviLwrJEOvnJwdVKLCZl-28" value="" style="shape=link;html=1;rounded=0;" edge="1" parent="1">
          <mxGeometry width="100" relative="1" as="geometry">
            <mxPoint x="760" y="1120" as="sourcePoint" />
            <mxPoint x="760" y="280" as="targetPoint" />
          </mxGeometry>
        </mxCell>
        <mxCell id="BviLwrJEOvnJwdVKLCZl-31" value="" style="curved=1;endArrow=classic;html=1;rounded=0;" edge="1" parent="1">
          <mxGeometry width="50" height="50" relative="1" as="geometry">
            <mxPoint x="260" y="320" as="sourcePoint" />
            <mxPoint x="390" y="210" as="targetPoint" />
            <Array as="points">
              <mxPoint x="380" y="260" />
              <mxPoint x="330" y="210" />
            </Array>
          </mxGeometry>
        </mxCell>
        <mxCell id="BviLwrJEOvnJwdVKLCZl-32" value="" style="curved=1;endArrow=classic;html=1;rounded=0;" edge="1" parent="1">
          <mxGeometry width="50" height="50" relative="1" as="geometry">
            <mxPoint x="530" y="320" as="sourcePoint" />
            <mxPoint x="420" y="210" as="targetPoint" />
            <Array as="points">
              <mxPoint x="420" y="260" />
              <mxPoint x="410" y="240" />
              <mxPoint x="450" y="230" />
            </Array>
          </mxGeometry>
        </mxCell>
        <mxCell id="BviLwrJEOvnJwdVKLCZl-33" value="" style="endArrow=classic;html=1;rounded=0;" edge="1" parent="1">
          <mxGeometry width="50" height="50" relative="1" as="geometry">
            <mxPoint x="400" y="360" as="sourcePoint" />
            <mxPoint x="400" y="220" as="targetPoint" />
          </mxGeometry>
        </mxCell>
        <mxCell id="BviLwrJEOvnJwdVKLCZl-34" value="" style="curved=1;endArrow=block;html=1;strokeColor=#1CCF00;strokeWidth=2;endSize=3;rounded=0;" edge="1" source="BviLwrJEOvnJwdVKLCZl-37" target="BviLwrJEOvnJwdVKLCZl-36" parent="1">
          <mxGeometry relative="1" as="geometry">
            <Array as="points">
              <mxPoint x="368" y="470" />
            </Array>
          </mxGeometry>
        </mxCell>
        <mxCell id="BviLwrJEOvnJwdVKLCZl-35" value="" style="curved=1;endArrow=block;html=1;strokeColor=#1CCF00;strokeWidth=2;endSize=3;rounded=0;" edge="1" source="BviLwrJEOvnJwdVKLCZl-38" target="BviLwrJEOvnJwdVKLCZl-37" parent="1">
          <mxGeometry relative="1" as="geometry">
            <Array as="points">
              <mxPoint x="392" y="470" />
            </Array>
          </mxGeometry>
        </mxCell>
        <mxCell id="BviLwrJEOvnJwdVKLCZl-36" value="1" style="strokeWidth=2;dashed=0;align=center;fontSize=8;shape=rect;fillColor=#80FF6C;strokeColor=#000000;fontStyle=1;" vertex="1" parent="1">
          <mxGeometry x="210" y="320" width="92" height="12" as="geometry" />
        </mxCell>
        <mxCell id="BviLwrJEOvnJwdVKLCZl-37" value="2" style="strokeWidth=2;dashed=0;align=center;fontSize=8;shape=rect;fillColor=#80FF6C;strokeColor=#000000;fontStyle=1;" vertex="1" parent="1">
          <mxGeometry x="390" y="360" width="12" height="80" as="geometry" />
        </mxCell>
        <mxCell id="BviLwrJEOvnJwdVKLCZl-39" style="edgeStyle=orthogonalEdgeStyle;rounded=0;orthogonalLoop=1;jettySize=auto;html=1;exitX=0.75;exitY=0;exitDx=0;exitDy=0;" edge="1" parent="1" source="BviLwrJEOvnJwdVKLCZl-38">
          <mxGeometry relative="1" as="geometry">
            <mxPoint x="530" y="320" as="targetPoint" />
          </mxGeometry>
        </mxCell>
        <mxCell id="BviLwrJEOvnJwdVKLCZl-38" value="3" style="strokeWidth=2;dashed=0;align=center;fontSize=8;shape=rect;fillColor=#80FF6C;strokeColor=#000000;fontStyle=1;" vertex="1" parent="1">
          <mxGeometry x="400" y="482" width="120" height="12" as="geometry" />
        </mxCell>
        <mxCell id="BviLwrJEOvnJwdVKLCZl-40" value="eip" style="text;html=1;align=center;verticalAlign=middle;resizable=0;points=[];autosize=1;strokeColor=none;fillColor=none;" vertex="1" parent="1">
          <mxGeometry x="530" y="475" width="40" height="30" as="geometry" />
        </mxCell>
        <mxCell id="BviLwrJEOvnJwdVKLCZl-41" value="" style="shape=flexArrow;endArrow=classic;startArrow=classic;html=1;rounded=0;fillColor=#f5f5f5;gradientColor=#b3b3b3;strokeColor=#666666;" edge="1" parent="1">
          <mxGeometry width="100" height="100" relative="1" as="geometry">
            <mxPoint x="459.5" y="610" as="sourcePoint" />
            <mxPoint x="459.5" y="530" as="targetPoint" />
            <Array as="points">
              <mxPoint x="459.5" y="620" />
            </Array>
          </mxGeometry>
        </mxCell>
        <mxCell id="BviLwrJEOvnJwdVKLCZl-42" value="" style="endArrow=none;dashed=1;html=1;rounded=0;" edge="1" parent="1">
          <mxGeometry width="50" height="50" relative="1" as="geometry">
            <mxPoint x="50" y="640" as="sourcePoint" />
            <mxPoint x="730" y="640" as="targetPoint" />
          </mxGeometry>
        </mxCell>
        <mxCell id="BviLwrJEOvnJwdVKLCZl-43" value="" style="outlineConnect=0;dashed=0;verticalLabelPosition=bottom;verticalAlign=top;align=center;html=1;shape=mxgraph.aws3.vpc_nat_gateway;fillColor=#F58536;gradientColor=none;rotation=-90;" vertex="1" parent="1">
          <mxGeometry x="425.5" y="650" width="69" height="72" as="geometry" />
        </mxCell>
        <mxCell id="BviLwrJEOvnJwdVKLCZl-44" value="" style="endArrow=classic;startArrow=classic;html=1;rounded=0;" edge="1" parent="1">
          <mxGeometry width="50" height="50" relative="1" as="geometry">
            <mxPoint x="390" y="772" as="sourcePoint" />
            <mxPoint x="440" y="722" as="targetPoint" />
          </mxGeometry>
        </mxCell>
        <mxCell id="BviLwrJEOvnJwdVKLCZl-45" value="" style="endArrow=classic;startArrow=classic;html=1;rounded=0;" edge="1" parent="1">
          <mxGeometry width="50" height="50" relative="1" as="geometry">
            <mxPoint x="510" y="782" as="sourcePoint" />
            <mxPoint x="480" y="722" as="targetPoint" />
          </mxGeometry>
        </mxCell>
        <mxCell id="BviLwrJEOvnJwdVKLCZl-64" style="edgeStyle=orthogonalEdgeStyle;rounded=0;orthogonalLoop=1;jettySize=auto;html=1;exitX=1;exitY=0.75;exitDx=0;exitDy=0;" edge="1" parent="1" source="BviLwrJEOvnJwdVKLCZl-47">
          <mxGeometry relative="1" as="geometry">
            <mxPoint x="580" y="960" as="targetPoint" />
          </mxGeometry>
        </mxCell>
        <mxCell id="BviLwrJEOvnJwdVKLCZl-47" value="" style="aspect=fixed;perimeter=ellipsePerimeter;html=1;align=center;shadow=0;dashed=0;spacingTop=3;image;image=img/lib/active_directory/switch.svg;" vertex="1" parent="1">
          <mxGeometry x="497.5" y="790" width="50" height="50" as="geometry" />
        </mxCell>
        <mxCell id="BviLwrJEOvnJwdVKLCZl-48" value="" style="endArrow=classic;html=1;rounded=0;exitX=0.5;exitY=1;exitDx=0;exitDy=0;exitPerimeter=0;" edge="1" parent="1" source="BviLwrJEOvnJwdVKLCZl-1">
          <mxGeometry width="50" height="50" relative="1" as="geometry">
            <mxPoint x="240" y="800" as="sourcePoint" />
            <mxPoint x="410" y="700" as="targetPoint" />
          </mxGeometry>
        </mxCell>
        <mxCell id="BviLwrJEOvnJwdVKLCZl-51" value="" style="curved=1;endArrow=classic;html=1;rounded=0;" edge="1" parent="1">
          <mxGeometry width="50" height="50" relative="1" as="geometry">
            <mxPoint x="440" y="960" as="sourcePoint" />
            <mxPoint x="460" y="730" as="targetPoint" />
            <Array as="points">
              <mxPoint x="470" y="930" />
              <mxPoint x="420" y="880" />
            </Array>
          </mxGeometry>
        </mxCell>
        <mxCell id="BviLwrJEOvnJwdVKLCZl-53" value="" style="outlineConnect=0;dashed=0;verticalLabelPosition=bottom;verticalAlign=top;align=center;html=1;shape=mxgraph.aws3.ecs;fillColor=#F58534;gradientColor=none;" vertex="1" parent="1">
          <mxGeometry x="328" y="970" width="72" height="67.5" as="geometry" />
        </mxCell>
        <mxCell id="BviLwrJEOvnJwdVKLCZl-54" value="" style="outlineConnect=0;dashed=0;verticalLabelPosition=bottom;verticalAlign=top;align=center;html=1;shape=mxgraph.aws3.ecs;fillColor=#F58534;gradientColor=none;" vertex="1" parent="1">
          <mxGeometry x="425.5" y="970" width="72" height="67.5" as="geometry" />
        </mxCell>
        <mxCell id="BviLwrJEOvnJwdVKLCZl-62" style="edgeStyle=orthogonalEdgeStyle;rounded=0;orthogonalLoop=1;jettySize=auto;html=1;exitX=0;exitY=1;exitDx=0;exitDy=0;" edge="1" parent="1" source="BviLwrJEOvnJwdVKLCZl-59">
          <mxGeometry relative="1" as="geometry">
            <mxPoint x="360" y="830" as="targetPoint" />
          </mxGeometry>
        </mxCell>
        <mxCell id="BviLwrJEOvnJwdVKLCZl-65" style="edgeStyle=orthogonalEdgeStyle;rounded=0;orthogonalLoop=1;jettySize=auto;html=1;exitX=0;exitY=1;exitDx=0;exitDy=0;" edge="1" parent="1" source="BviLwrJEOvnJwdVKLCZl-59">
          <mxGeometry relative="1" as="geometry">
            <mxPoint x="340" y="960" as="targetPoint" />
          </mxGeometry>
        </mxCell>
        <mxCell id="BviLwrJEOvnJwdVKLCZl-59" value="" style="aspect=fixed;perimeter=ellipsePerimeter;html=1;align=center;shadow=0;dashed=0;spacingTop=3;image;image=img/lib/active_directory/switch.svg;" vertex="1" parent="1">
          <mxGeometry x="364" y="780" width="50" height="50" as="geometry" />
        </mxCell>
        <mxCell id="BviLwrJEOvnJwdVKLCZl-60" value="" style="outlineConnect=0;dashed=0;verticalLabelPosition=bottom;verticalAlign=top;align=center;html=1;shape=mxgraph.aws3.ecs;fillColor=#F58534;gradientColor=none;" vertex="1" parent="1">
          <mxGeometry x="545" y="970" width="72" height="67.5" as="geometry" />
        </mxCell>
        <mxCell id="BviLwrJEOvnJwdVKLCZl-61" value="" style="curved=1;endArrow=classic;html=1;rounded=0;" edge="1" parent="1">
          <mxGeometry width="50" height="50" relative="1" as="geometry">
            <mxPoint x="320" y="1000" as="sourcePoint" />
            <mxPoint x="200" y="850" as="targetPoint" />
            <Array as="points">
              <mxPoint x="270" y="970" />
              <mxPoint x="290" y="940" />
            </Array>
          </mxGeometry>
        </mxCell>
        <mxCell id="BviLwrJEOvnJwdVKLCZl-66" style="edgeStyle=orthogonalEdgeStyle;rounded=0;orthogonalLoop=1;jettySize=auto;html=1;" edge="1" parent="1" source="BviLwrJEOvnJwdVKLCZl-63" target="BviLwrJEOvnJwdVKLCZl-67">
          <mxGeometry relative="1" as="geometry">
            <mxPoint x="120" y="1050" as="targetPoint" />
          </mxGeometry>
        </mxCell>
        <mxCell id="BviLwrJEOvnJwdVKLCZl-63" value="database" style="strokeWidth=2;html=1;shape=mxgraph.flowchart.database;whiteSpace=wrap;" vertex="1" parent="1">
          <mxGeometry x="100" y="770" width="90" height="160" as="geometry" />
        </mxCell>
        <mxCell id="BviLwrJEOvnJwdVKLCZl-67" value="" style="aspect=fixed;perimeter=ellipsePerimeter;html=1;align=center;shadow=0;dashed=0;spacingTop=3;image;image=img/lib/active_directory/web_server.svg;" vertex="1" parent="1">
          <mxGeometry x="100" y="1010" width="80" height="100" as="geometry" />
        </mxCell>
        <mxCell id="BviLwrJEOvnJwdVKLCZl-68" value="web server" style="text;html=1;align=center;verticalAlign=middle;resizable=0;points=[];autosize=1;strokeColor=none;fillColor=none;" vertex="1" parent="1">
          <mxGeometry x="190" y="1065" width="80" height="30" as="geometry" />
        </mxCell>
        <mxCell id="BviLwrJEOvnJwdVKLCZl-69" value="elastic compute servers" style="text;html=1;align=center;verticalAlign=middle;resizable=0;points=[];autosize=1;strokeColor=none;fillColor=none;" vertex="1" parent="1">
          <mxGeometry x="410" y="1060" width="150" height="30" as="geometry" />
        </mxCell>
        <mxCell id="BviLwrJEOvnJwdVKLCZl-70" value="vm switch 1" style="text;html=1;align=center;verticalAlign=middle;resizable=0;points=[];autosize=1;strokeColor=none;fillColor=none;" vertex="1" parent="1">
          <mxGeometry x="545" y="775" width="90" height="30" as="geometry" />
        </mxCell>
        <mxCell id="BviLwrJEOvnJwdVKLCZl-71" value="vm switch 2" style="text;html=1;align=center;verticalAlign=middle;resizable=0;points=[];autosize=1;strokeColor=none;fillColor=none;" vertex="1" parent="1">
          <mxGeometry x="255" y="775" width="90" height="30" as="geometry" />
        </mxCell>
        <mxCell id="BviLwrJEOvnJwdVKLCZl-72" value="nat gateway" style="text;html=1;align=center;verticalAlign=middle;resizable=0;points=[];autosize=1;strokeColor=none;fillColor=none;" vertex="1" parent="1">
          <mxGeometry x="520" y="671" width="90" height="30" as="geometry" />
        </mxCell>
        <mxCell id="BviLwrJEOvnJwdVKLCZl-73" value="vpc&amp;nbsp;" style="text;html=1;align=center;verticalAlign=middle;resizable=0;points=[];autosize=1;strokeColor=none;fillColor=none;" vertex="1" parent="1">
          <mxGeometry x="155" y="575" width="50" height="30" as="geometry" />
        </mxCell>
        <mxCell id="BviLwrJEOvnJwdVKLCZl-74" value="" style="endArrow=none;html=1;rounded=0;" edge="1" parent="1">
          <mxGeometry width="50" height="50" relative="1" as="geometry">
            <mxPoint x="290" y="1120" as="sourcePoint" />
            <mxPoint x="760" y="1120" as="targetPoint" />
            <Array as="points">
              <mxPoint x="40" y="1120" />
            </Array>
          </mxGeometry>
        </mxCell>
      </root>
    </mxGraphModel>
  </diagram>
</mxfile>
